<svg width="408" height="708" viewBox="0 0 408 708" fill="none" xmlns="http://www.w3.org/2000/svg">
<path d="M116.949 141.912L124.264 151.387L134.454 145.107L127.703 154.992L136.825 162.743L125.338 159.377L120.785 170.448L120.436 158.482L108.5 157.573L119.772 153.544L116.949 141.912Z" fill="white"/>
<path d="M110.101 147.787L121.324 151.948L126.64 141.223L126.151 153.183L137.994 154.925L126.468 158.156L128.471 169.957L121.837 159.994L111.232 165.546L118.658 156.157L110.101 147.787Z" fill="white"/>
<path d="M183.173 189.215L190.488 198.69L200.679 192.41L193.928 202.295L203.05 210.046L191.562 206.68L187.009 217.751L186.661 205.786L174.725 204.877L185.997 200.848L183.173 189.215Z" fill="white"/>
<path d="M176.325 195.09L187.549 199.252L192.865 188.527L192.376 200.487L204.219 202.228L192.693 205.459L194.696 217.261L188.062 207.297L177.457 212.849L184.883 203.46L176.325 195.09Z" fill="white"/>
<path d="M135 158L195.5 207L205 251" stroke="white"/>
<path d="M210.949 6.91187L218.264 16.387L228.454 10.1069L221.703 19.9918L230.825 27.7429L219.338 24.377L214.785 35.4475L214.436 23.4824L202.5 22.5732L213.772 18.5443L210.949 6.91187Z" fill="white"/>
<path d="M204.101 12.7871L215.324 16.9483L220.64 6.2233L220.151 18.1835L231.994 19.9253L220.468 23.156L222.471 34.9574L215.837 24.9938L205.232 30.5458L212.658 21.1573L204.101 12.7871Z" fill="white"/>
<path d="M272.86 187.559L277.686 193.809L284.408 189.667L279.954 196.187L285.971 201.3L278.394 199.08L275.391 206.382L275.161 198.49L267.288 197.89L274.723 195.232L272.86 187.559Z" fill="white"/>
<path d="M268.343 191.435L275.747 194.179L279.253 187.105L278.931 194.994L286.743 196.143L279.14 198.274L280.461 206.059L276.085 199.487L269.09 203.149L273.988 196.956L268.343 191.435Z" fill="white"/>
<path fill-rule="evenodd" clip-rule="evenodd" d="M202.864 246.466L204.5 251L206.08 246.62L210 245.5L206.337 244.453L204.5 240L202.603 244.599L199 245.5L202.864 246.466Z" fill="white"/>
<path d="M98.7739 360.236L161.05 351.128L232.096 393.064L250.797 382.039L284.158 382.571L283.952 401.609" stroke="white"/>
<path d="M101.357 361.761L134.943 381.586L221.15 456.856L234.366 434.466L231.941 395.295" stroke="white"/>
<path d="M102.27 345.36L103.753 357.238L115.721 357.01L104.883 362.091L108.798 373.403L100.616 364.665L91.0682 371.884L96.8501 361.403L87.0336 354.553L98.7885 356.813L102.27 345.36Z" fill="white"/>
<path d="M93.3861 346.938L100.936 356.227L110.966 349.693L104.465 359.745L113.779 367.264L102.211 364.188L97.9368 375.369L97.2882 363.416L85.3335 362.807L96.5007 358.496L93.3861 346.938Z" fill="white"/>
<path d="M221.632 440.201L223.115 452.079L235.083 451.85L224.245 456.931L228.16 468.243L219.978 459.505L210.43 466.725L216.212 456.243L206.396 449.393L218.151 451.653L221.632 440.201Z" fill="white"/>
<path d="M212.748 441.779L220.298 451.068L230.328 444.534L223.827 454.585L233.141 462.105L221.573 459.028L217.299 470.21L216.65 458.257L204.696 457.647L215.863 453.337L212.748 441.779Z" fill="white"/>
<path d="M230.488 383.884L231.971 395.762L243.939 395.534L233.101 400.615L237.016 411.926L228.835 403.189L219.286 410.408L225.068 399.927L215.252 393.077L227.007 395.337L230.488 383.884Z" fill="white"/>
<path d="M221.604 385.462L229.155 394.751L239.184 388.217L232.684 398.268L241.997 405.788L230.429 402.712L226.155 413.893L225.506 401.94L213.552 401.331L224.719 397.02L221.604 385.462Z" fill="white"/>
<path fill-rule="evenodd" clip-rule="evenodd" d="M159.249 352.928L158.353 357.664L161.94 354.696L165.885 355.724L163.262 352.96L163.944 348.191L159.973 351.188L156.412 350.132L159.249 352.928Z" fill="white"/>
<path fill-rule="evenodd" clip-rule="evenodd" d="M134.765 382.603L133.87 387.339L137.457 384.37L141.402 385.398L138.779 382.635L139.461 377.866L135.49 380.863L131.929 379.807L134.765 382.603Z" fill="white"/>
<path fill-rule="evenodd" clip-rule="evenodd" d="M231.683 432.842L230.787 437.578L234.375 434.61L238.319 435.638L235.696 432.874L236.379 428.105L232.407 431.102L228.846 430.046L231.683 432.842Z" fill="white"/>
<path fill-rule="evenodd" clip-rule="evenodd" d="M249.151 381.609L248.255 386.345L251.843 383.376L255.787 384.404L253.164 381.641L253.847 376.872L249.875 379.869L246.314 378.813L249.151 381.609Z" fill="white"/>
<path fill-rule="evenodd" clip-rule="evenodd" d="M283.98 383.588L283.084 388.324L286.672 385.355L290.617 386.383L287.994 383.62L288.676 378.851L284.705 381.848L281.144 380.792L283.98 383.588Z" fill="white"/>
<path fill-rule="evenodd" clip-rule="evenodd" d="M285.32 402.958L284.424 407.694L288.012 404.726L291.956 405.753L289.333 402.99L290.016 398.221L286.044 401.218L282.483 400.162L285.32 402.958Z" fill="white"/>
<path d="M181.27 569.36L182.753 581.238L194.721 581.01L183.883 586.091L187.798 597.403L179.616 588.665L170.068 595.884L175.85 585.403L166.034 578.553L177.789 580.813L181.27 569.36Z" fill="white"/>
<path d="M172.386 570.938L179.936 580.227L189.966 573.693L183.465 583.745L192.779 591.264L181.211 588.188L176.937 599.369L176.288 587.416L164.333 586.807L175.501 582.496L172.386 570.938Z" fill="white"/>
<path d="M300.632 664.201L302.115 676.079L314.083 675.85L303.245 680.931L307.16 692.243L298.978 683.505L289.43 690.725L295.212 680.243L285.396 673.393L297.151 675.653L300.632 664.201Z" fill="white"/>
<path d="M291.748 665.779L299.298 675.068L309.328 668.534L302.827 678.585L312.141 686.105L300.573 683.028L296.299 694.21L295.65 682.257L283.696 681.647L294.863 677.337L291.748 665.779Z" fill="white"/>
<path d="M309.488 607.884L310.971 619.762L322.939 619.534L312.101 624.615L316.016 635.926L307.835 627.189L298.286 634.408L304.068 623.927L294.252 617.077L306.007 619.337L309.488 607.884Z" fill="white"/>
<path d="M300.604 609.462L308.155 618.751L318.184 612.217L311.684 622.268L320.997 629.788L309.429 626.712L305.155 637.893L304.506 625.94L292.552 625.331L303.719 621.02L300.604 609.462Z" fill="white"/>
<path fill-rule="evenodd" clip-rule="evenodd" d="M238.249 576.928L237.353 581.664L240.94 578.696L244.885 579.724L242.262 576.96L242.944 572.191L238.973 575.188L235.412 574.132L238.249 576.928Z" fill="white"/>
<path fill-rule="evenodd" clip-rule="evenodd" d="M213.765 606.603L212.87 611.339L216.457 608.37L220.402 609.398L217.779 606.635L218.461 601.866L214.49 604.863L210.929 603.807L213.765 606.603Z" fill="white"/>
<path fill-rule="evenodd" clip-rule="evenodd" d="M310.683 656.842L309.787 661.578L313.375 658.61L317.319 659.638L314.696 656.874L315.379 652.105L311.407 655.102L307.846 654.046L310.683 656.842Z" fill="white"/>
<path fill-rule="evenodd" clip-rule="evenodd" d="M328.151 605.609L327.255 610.345L330.843 607.376L334.787 608.404L332.164 605.641L332.847 600.872L328.875 603.869L325.314 602.813L328.151 605.609Z" fill="white"/>
<path fill-rule="evenodd" clip-rule="evenodd" d="M362.98 607.588L362.084 612.324L365.672 609.355L369.617 610.383L366.994 607.62L367.676 602.851L363.705 605.848L360.144 604.792L362.98 607.588Z" fill="white"/>
<path fill-rule="evenodd" clip-rule="evenodd" d="M364.32 626.958L363.424 631.694L367.012 628.726L370.956 629.753L368.333 626.99L369.016 622.221L365.044 625.218L361.483 624.162L364.32 626.958Z" fill="white"/>
<circle cx="139.5" cy="255.5" r="4.5" fill="white"/>
<circle cx="329.5" cy="291.5" r="4.5" fill="white"/>
<circle cx="300.5" cy="548.5" r="4.5" fill="white"/>
<circle cx="403.5" cy="172.5" r="4.5" fill="white"/>
<circle cx="42.5" cy="172.5" r="4.5" fill="white"/>
<circle cx="4.5" cy="390.5" r="4.5" fill="white"/>
<circle cx="83.5" cy="614.5" r="4.5" fill="white"/>
</svg>
